<svg id="my-svg" width="100%" xmlns="http://www.w3.org/2000/svg" xmlns:xlink="http://www.w3.org/1999/xlink" class="flowchart" style="max-width: 2149.93px; background-color: white;" viewBox="0 0 2149.9296875 1175" role="graphics-document document" aria-roledescription="flowchart-v2"><style>#my-svg{font-family:"trebuchet ms",verdana,arial,sans-serif;font-size:16px;fill:#333;}@keyframes edge-animation-frame{from{stroke-dashoffset:0;}}@keyframes dash{to{stroke-dashoffset:0;}}#my-svg .edge-animation-slow{stroke-dasharray:9,5!important;stroke-dashoffset:900;animation:dash 50s linear infinite;stroke-linecap:round;}#my-svg .edge-animation-fast{stroke-dasharray:9,5!important;stroke-dashoffset:900;animation:dash 20s linear infinite;stroke-linecap:round;}#my-svg .error-icon{fill:#552222;}#my-svg .error-text{fill:#552222;stroke:#552222;}#my-svg .edge-thickness-normal{stroke-width:1px;}#my-svg .edge-thickness-thick{stroke-width:3.5px;}#my-svg .edge-pattern-solid{stroke-dasharray:0;}#my-svg .edge-thickness-invisible{stroke-width:0;fill:none;}#my-svg .edge-pattern-dashed{stroke-dasharray:3;}#my-svg .edge-pattern-dotted{stroke-dasharray:2;}#my-svg .marker{fill:#333333;stroke:#333333;}#my-svg .marker.cross{stroke:#333333;}#my-svg svg{font-family:"trebuchet ms",verdana,arial,sans-serif;font-size:16px;}#my-svg p{margin:0;}#my-svg .label{font-family:"trebuchet ms",verdana,arial,sans-serif;color:#333;}#my-svg .cluster-label text{fill:#333;}#my-svg .cluster-label span{color:#333;}#my-svg .cluster-label span p{background-color:transparent;}#my-svg .label text,#my-svg span{fill:#333;color:#333;}#my-svg .node rect,#my-svg .node circle,#my-svg .node ellipse,#my-svg .node polygon,#my-svg .node path{fill:#ECECFF;stroke:#9370DB;stroke-width:1px;}#my-svg .rough-node .label text,#my-svg .node .label text,#my-svg .image-shape .label,#my-svg .icon-shape .label{text-anchor:middle;}#my-svg .node .katex path{fill:#000;stroke:#000;stroke-width:1px;}#my-svg .rough-node .label,#my-svg .node .label,#my-svg .image-shape .label,#my-svg .icon-shape .label{text-align:center;}#my-svg .node.clickable{cursor:pointer;}#my-svg .root .anchor path{fill:#333333!important;stroke-width:0;stroke:#333333;}#my-svg .arrowheadPath{fill:#333333;}#my-svg .edgePath .path{stroke:#333333;stroke-width:1px;}#my-svg .flowchart-link{stroke:#333333;fill:none;}#my-svg .edgeLabel{background-color:rgba(232,232,232, 0.8);text-align:center;}#my-svg .edgeLabel p{background-color:rgba(232,232,232, 0.8);}#my-svg .edgeLabel rect{opacity:0.5;background-color:rgba(232,232,232, 0.8);fill:rgba(232,232,232, 0.8);}#my-svg .labelBkg{background-color:rgba(232, 232, 232, 0.5);}#my-svg .cluster rect{fill:#ffffde;stroke:#aaaa33;stroke-width:1px;}#my-svg .cluster text{fill:#333;}#my-svg .cluster span{color:#333;}#my-svg div.mermaidTooltip{position:absolute;text-align:center;max-width:200px;padding:2px;font-family:"trebuchet ms",verdana,arial,sans-serif;font-size:12px;background:hsl(80, 100%, 96.2745098039%);border:1px solid #aaaa33;border-radius:2px;pointer-events:none;z-index:100;}#my-svg .flowchartTitleText{text-anchor:middle;font-size:18px;fill:#333;}#my-svg rect.text{fill:none;stroke-width:0;}#my-svg .icon-shape,#my-svg .image-shape{background-color:rgba(232,232,232, 0.8);text-align:center;}#my-svg .icon-shape p,#my-svg .image-shape p{background-color:rgba(232,232,232, 0.8);padding:2px;}#my-svg .icon-shape .label rect,#my-svg .image-shape .label rect{opacity:0.5;background-color:rgba(232,232,232, 0.8);fill:rgba(232,232,232, 0.8);}#my-svg .label-icon{display:inline-block;height:1em;overflow:visible;vertical-align:-0.125em;}#my-svg .node .label-icon path{fill:currentColor;stroke:revert;stroke-width:revert;}#my-svg .node .neo-node{stroke:#9370DB;}#my-svg [data-look="neo"].node rect,#my-svg [data-look="neo"].cluster rect,#my-svg [data-look="neo"].node polygon{stroke:#9370DB;filter:drop-shadow(1px 2px 2px rgba(185, 185, 185, 1));}#my-svg [data-look="neo"].swimlane.cluster rect{filter:none;}#my-svg [data-look="neo"].node path{stroke:#9370DB;stroke-width:1px;}#my-svg [data-look="neo"].node .outer-path{filter:drop-shadow(1px 2px 2px rgba(185, 185, 185, 1));}#my-svg [data-look="neo"].node .neo-line path{stroke:#9370DB;filter:none;}#my-svg [data-look="neo"].node circle{stroke:#9370DB;filter:drop-shadow(1px 2px 2px rgba(185, 185, 185, 1));}#my-svg [data-look="neo"].node circle .state-start{fill:#000000;}#my-svg [data-look="neo"].icon-shape .icon{fill:#9370DB;filter:drop-shadow(1px 2px 2px rgba(185, 185, 185, 1));}#my-svg [data-look="neo"].icon-shape .icon-neo path{stroke:#9370DB;filter:drop-shadow(1px 2px 2px rgba(185, 185, 185, 1));}#my-svg :root{--mermaid-font-family:"trebuchet ms",verdana,arial,sans-serif;}</style><g><marker id="my-svg_flowchart-v2-pointEnd" class="marker flowchart-v2" viewBox="0 0 10 10" refX="5" refY="5" markerUnits="userSpaceOnUse" markerWidth="8" markerHeight="8" orient="auto"><path d="M 0 0 L 10 5 L 0 10 z" class="arrowMarkerPath" style="stroke-width: 1; stroke-dasharray: 1, 0;"/></marker><marker id="my-svg_flowchart-v2-pointStart" class="marker flowchart-v2" viewBox="0 0 10 10" refX="4.5" refY="5" markerUnits="userSpaceOnUse" markerWidth="8" markerHeight="8" orient="auto"><path d="M 0 5 L 10 10 L 10 0 z" class="arrowMarkerPath" style="stroke-width: 1; stroke-dasharray: 1, 0;"/></marker><marker id="my-svg_flowchart-v2-pointEnd-margin" class="marker flowchart-v2" viewBox="0 0 11.5 14" refX="11.5" refY="7" markerUnits="userSpaceOnUse" markerWidth="10.5" markerHeight="14" orient="auto"><path d="M 0 0 L 11.5 7 L 0 14 z" class="arrowMarkerPath" style="stroke-width: 0; stroke-dasharray: 1, 0;"/></marker><marker id="my-svg_flowchart-v2-pointStart-margin" class="marker flowchart-v2" viewBox="0 0 11.5 14" refX="1" refY="7" markerUnits="userSpaceOnUse" markerWidth="11.5" markerHeight="14" orient="auto"><polygon points="0,7 11.5,14 11.5,0" class="arrowMarkerPath" style="stroke-width: 0; stroke-dasharray: 1, 0;"/></marker><marker id="my-svg_flowchart-v2-circleEnd" class="marker flowchart-v2" viewBox="0 0 10 10" refX="11" refY="5" markerUnits="userSpaceOnUse" markerWidth="11" markerHeight="11" orient="auto"><circle cx="5" cy="5" r="5" class="arrowMarkerPath" style="stroke-width: 1; stroke-dasharray: 1, 0;"/></marker><marker id="my-svg_flowchart-v2-circleStart" class="marker flowchart-v2" viewBox="0 0 10 10" refX="-1" refY="5" markerUnits="userSpaceOnUse" markerWidth="11" markerHeight="11" orient="auto"><circle cx="5" cy="5" r="5" class="arrowMarkerPath" style="stroke-width: 1; stroke-dasharray: 1, 0;"/></marker><marker id="my-svg_flowchart-v2-circleEnd-margin" class="marker flowchart-v2" viewBox="0 0 10 10" refY="5" refX="12.25" markerUnits="userSpaceOnUse" markerWidth="14" markerHeight="14" orient="auto"><circle cx="5" cy="5" r="5" class="arrowMarkerPath" style="stroke-width: 0; stroke-dasharray: 1, 0;"/></marker><marker id="my-svg_flowchart-v2-circleStart-margin" class="marker flowchart-v2" viewBox="0 0 10 10" refX="-2" refY="5" markerUnits="userSpaceOnUse" markerWidth="14" markerHeight="14" orient="auto"><circle cx="5" cy="5" r="5" class="arrowMarkerPath" style="stroke-width: 0; stroke-dasharray: 1, 0;"/></marker><marker id="my-svg_flowchart-v2-crossEnd" class="marker cross flowchart-v2" viewBox="0 0 11 11" refX="12" refY="5.2" markerUnits="userSpaceOnUse" markerWidth="11" markerHeight="11" orient="auto"><path d="M 1,1 l 9,9 M 10,1 l -9,9" class="arrowMarkerPath" style="stroke-width: 2; stroke-dasharray: 1, 0;"/></marker><marker id="my-svg_flowchart-v2-crossStart" class="marker cross flowchart-v2" viewBox="0 0 11 11" refX="-1" refY="5.2" markerUnits="userSpaceOnUse" markerWidth="11" markerHeight="11" orient="auto"><path d="M 1,1 l 9,9 M 10,1 l -9,9" class="arrowMarkerPath" style="stroke-width: 2; stroke-dasharray: 1, 0;"/></marker><marker id="my-svg_flowchart-v2-crossEnd-margin" class="marker cross flowchart-v2" viewBox="0 0 15 15" refX="17.7" refY="7.5" markerUnits="userSpaceOnUse" markerWidth="12" markerHeight="12" orient="auto"><path d="M 1,1 L 14,14 M 1,14 L 14,1" class="arrowMarkerPath" style="stroke-width: 2.5;"/></marker><marker id="my-svg_flowchart-v2-crossStart-margin" class="marker cross flowchart-v2" viewBox="0 0 15 15" refX="-3.5" refY="7.5" markerUnits="userSpaceOnUse" markerWidth="12" markerHeight="12" orient="auto"><path d="M 1,1 L 14,14 M 1,14 L 14,1" class="arrowMarkerPath" style="stroke-width: 2.5; stroke-dasharray: 1, 0;"/></marker><g class="root"><g class="clusters"><g class="cluster" id="my-svg-subGraph7" data-look="classic"><rect style="" x="1829.6171875" y="863" width="312.3125" height="304"/><g class="cluster-label" transform="translate(1936.46875, 863)"><foreignObject width="98.609375" height="24"><div xmlns="http://www.w3.org/1999/xhtml" style="display: table-cell; white-space: nowrap; line-height: 1.5;"><span class="nodeLabel"><p>Release Layer</p></span></div></foreignObject></g></g><g class="cluster" id="my-svg-subGraph6" data-look="classic"><rect style="" x="539.50390625" y="686" width="1270.11328125" height="481"/><g class="cluster-label" transform="translate(1100.404296875, 686)"><foreignObject width="148.3125" height="24"><div xmlns="http://www.w3.org/1999/xhtml" style="display: table-cell; white-space: nowrap; line-height: 1.5;"><span class="nodeLabel"><p>Eval &amp; Routing Layer</p></span></div></foreignObject></g></g><g class="cluster" id="my-svg-subGraph5" data-look="classic"><rect style="" x="8" y="234" width="280.90625" height="152"/><g class="cluster-label" transform="translate(83.9140625, 234)"><foreignObject width="129.078125" height="24"><div xmlns="http://www.w3.org/1999/xhtml" style="display: table-cell; white-space: nowrap; line-height: 1.5;"><span class="nodeLabel"><p>Compaction Layer</p></span></div></foreignObject></g></g><g class="cluster" id="my-svg-subGraph4" data-look="classic"><rect style="" x="308.90625" y="234" width="317.28125" height="152"/><g class="cluster-label" transform="translate(420.5546875, 234)"><foreignObject width="93.984375" height="24"><div xmlns="http://www.w3.org/1999/xhtml" style="display: table-cell; white-space: nowrap; line-height: 1.5;"><span class="nodeLabel"><p>Budget Layer</p></span></div></foreignObject></g></g><g class="cluster" id="my-svg-subGraph3" data-look="classic"><rect style="" x="666.1875" y="234" width="596.875" height="152"/><g class="cluster-label" transform="translate(917.328125, 234)"><foreignObject width="94.59375" height="24"><div xmlns="http://www.w3.org/1999/xhtml" style="display: table-cell; white-space: nowrap; line-height: 1.5;"><span class="nodeLabel"><p>Review Layer</p></span></div></foreignObject></g></g><g class="cluster" id="my-svg-subGraph2" data-look="classic"><rect style="" x="1303.5703125" y="460" width="792.05078125" height="152"/><g class="cluster-label" transform="translate(1642.408203125, 460)"><foreignObject width="114.375" height="24"><div xmlns="http://www.w3.org/1999/xhtml" style="display: table-cell; white-space: nowrap; line-height: 1.5;"><span class="nodeLabel"><p>Execution Layer</p></span></div></foreignObject></g></g><g class="cluster" id="my-svg-subGraph1" data-look="classic"><rect style="" x="1337.9375" y="234" width="316.046875" height="152"/><g class="cluster-label" transform="translate(1443.4453125, 234)"><foreignObject width="105.03125" height="24"><div xmlns="http://www.w3.org/1999/xhtml" style="display: table-cell; white-space: nowrap; line-height: 1.5;"><span class="nodeLabel"><p>Planning Layer</p></span></div></foreignObject></g></g><g class="cluster" id="my-svg-subGraph0" data-look="classic"><rect style="" x="58.2265625" y="8" width="1848.23828125" height="152"/><g class="cluster-label" transform="translate(914.767578125, 8)"><foreignObject width="135.15625" height="24"><div xmlns="http://www.w3.org/1999/xhtml" style="display: table-cell; white-space: nowrap; line-height: 1.5;"><span class="nodeLabel"><p>Orchestrator Layer</p></span></div></foreignObject></g></g></g><g class="edgePaths"><path d="M1231.961,108.933L1275.961,117.444C1319.961,125.956,1407.961,142.978,1451.961,157.656C1495.961,172.333,1495.961,184.667,1495.961,197C1495.961,209.333,1495.961,221.667,1495.961,231.333C1495.961,241,1495.961,248,1495.961,251.5L1495.961,255" id="my-svg-L_ORC_PLN_0" class="edge-thickness-normal edge-pattern-solid edge-thickness-normal edge-pattern-solid flowchart-link" style=";" data-edge="true" data-et="edge" data-id="L_ORC_PLN_0" data-points="W3sieCI6MTIzMS45NjA5Mzc1LCJ5IjoxMDguOTMzMzY3Nzk5NDA3NDV9LHsieCI6MTQ5NS45NjA5Mzc1LCJ5IjoxNjB9LHsieCI6MTQ5NS45NjA5Mzc1LCJ5IjoxOTd9LHsieCI6MTQ5NS45NjA5Mzc1LCJ5IjoyMzR9LHsieCI6MTQ5NS45NjA5Mzc1LCJ5IjoyNTl9XQ==" data-look="classic" marker-end="url(#my-svg_flowchart-v2-pointEnd)"/><path d="M1231.961,96.505L1341.045,107.087C1450.129,117.67,1668.297,138.835,1777.381,155.584C1886.465,172.333,1886.465,184.667,1886.465,197C1886.465,209.333,1886.465,221.667,1886.465,240.5C1886.465,259.333,1886.465,284.667,1886.465,310C1886.465,335.333,1886.465,360.667,1886.465,379.5C1886.465,398.333,1886.465,410.667,1886.465,423C1886.465,435.333,1886.465,447.667,1886.465,457.333C1886.465,467,1886.465,474,1886.465,477.5L1886.465,481" id="my-svg-L_ORC_EXP_0" class="edge-thickness-normal edge-pattern-solid edge-thickness-normal edge-pattern-solid flowchart-link" style=";" data-edge="true" data-et="edge" data-id="L_ORC_EXP_0" data-points="W3sieCI6MTIzMS45NjA5Mzc1LCJ5Ijo5Ni41MDQ3ODkzMDU0NjM0NX0seyJ4IjoxODg2LjQ2NDg0Mzc1LCJ5IjoxNjB9LHsieCI6MTg4Ni40NjQ4NDM3NSwieSI6MTk3fSx7IngiOjE4ODYuNDY0ODQzNzUsInkiOjIzNH0seyJ4IjoxODg2LjQ2NDg0Mzc1LCJ5IjozMTB9LHsieCI6MTg4Ni40NjQ4NDM3NSwieSI6Mzg2fSx7IngiOjE4ODYuNDY0ODQzNzUsInkiOjQyM30seyJ4IjoxODg2LjQ2NDg0Mzc1LCJ5Ijo0NjB9LHsieCI6MTg4Ni40NjQ4NDM3NSwieSI6NDg1fV0=" data-look="classic" marker-end="url(#my-svg_flowchart-v2-pointEnd)"/><path d="M1231.961,100.071L1312.073,110.059C1392.185,120.047,1552.409,140.024,1632.521,156.178C1712.633,172.333,1712.633,184.667,1712.633,197C1712.633,209.333,1712.633,221.667,1712.633,240.5C1712.633,259.333,1712.633,284.667,1712.633,310C1712.633,335.333,1712.633,360.667,1712.633,379.5C1712.633,398.333,1712.633,410.667,1712.633,423C1712.633,435.333,1712.633,447.667,1706.87,457.633C1701.107,467.599,1689.582,475.199,1683.819,478.998L1678.056,482.798" id="my-svg-L_ORC_IMP_0" class="edge-thickness-normal edge-pattern-solid edge-thickness-normal edge-pattern-solid flowchart-link" style=";" data-edge="true" data-et="edge" data-id="L_ORC_IMP_0" data-points="W3sieCI6MTIzMS45NjA5Mzc1LCJ5IjoxMDAuMDcwNzk3ODIxMjExMTZ9LHsieCI6MTcxMi42MzI4MTI1LCJ5IjoxNjB9LHsieCI6MTcxMi42MzI4MTI1LCJ5IjoxOTd9LHsieCI6MTcxMi42MzI4MTI1LCJ5IjoyMzR9LHsieCI6MTcxMi42MzI4MTI1LCJ5IjozMTB9LHsieCI6MTcxMi42MzI4MTI1LCJ5IjozODZ9LHsieCI6MTcxMi42MzI4MTI1LCJ5Ijo0MjN9LHsieCI6MTcxMi42MzI4MTI1LCJ5Ijo0NjB9LHsieCI6MTY3NC43MTY0ODg0ODY4NDIsInkiOjQ4NX1d" data-look="classic" marker-end="url(#my-svg_flowchart-v2-pointEnd)"/><path d="M974.164,117.963L947.574,124.969C920.984,131.976,867.805,145.988,841.215,159.161C814.625,172.333,814.625,184.667,814.625,197C814.625,209.333,814.625,221.667,814.625,231.333C814.625,241,814.625,248,814.625,251.5L814.625,255" id="my-svg-L_ORC_REV_0" class="edge-thickness-normal edge-pattern-solid edge-thickness-normal edge-pattern-solid flowchart-link" style=";" data-edge="true" data-et="edge" data-id="L_ORC_REV_0" data-points="W3sieCI6OTc0LjE2NDA2MjUsInkiOjExNy45NjMyNzE5MzkzMjgyOH0seyJ4Ijo4MTQuNjI1LCJ5IjoxNjB9LHsieCI6ODE0LjYyNSwieSI6MTk3fSx7IngiOjgxNC42MjUsInkiOjIzNH0seyJ4Ijo4MTQuNjI1LCJ5IjoyNTl9XQ==" data-look="classic" marker-end="url(#my-svg_flowchart-v2-pointEnd)"/><path d="M1103.063,135L1103.063,139.167C1103.063,143.333,1103.063,151.667,1103.063,162C1103.063,172.333,1103.063,184.667,1103.063,197C1103.063,209.333,1103.063,221.667,1103.063,231.333C1103.063,241,1103.063,248,1103.063,251.5L1103.063,255" id="my-svg-L_ORC_ARCH_0" class="edge-thickness-normal edge-pattern-solid edge-thickness-normal edge-pattern-solid flowchart-link" style=";" data-edge="true" data-et="edge" data-id="L_ORC_ARCH_0" data-points="W3sieCI6MTEwMy4wNjI1LCJ5IjoxMzV9LHsieCI6MTEwMy4wNjI1LCJ5IjoxNjB9LHsieCI6MTEwMy4wNjI1LCJ5IjoxOTd9LHsieCI6MTEwMy4wNjI1LCJ5IjoyMzR9LHsieCI6MTEwMy4wNjI1LCJ5IjoyNTl9XQ==" data-look="classic" marker-end="url(#my-svg_flowchart-v2-pointEnd)"/><path d="M974.164,99.415L889.728,109.512C805.292,119.61,636.419,139.805,551.983,156.069C467.547,172.333,467.547,184.667,467.547,197C467.547,209.333,467.547,221.667,467.547,231.333C467.547,241,467.547,248,467.547,251.5L467.547,255" id="my-svg-L_ORC_BUD_0" class="edge-thickness-normal edge-pattern-solid edge-thickness-normal edge-pattern-solid flowchart-link" style=";" data-edge="true" data-et="edge" data-id="L_ORC_BUD_0" data-points="W3sieCI6OTc0LjE2NDA2MjUsInkiOjk5LjQxNDY5NzcxMTAxMjIyfSx7IngiOjQ2Ny41NDY4NzUsInkiOjE2MH0seyJ4Ijo0NjcuNTQ2ODc1LCJ5IjoxOTd9LHsieCI6NDY3LjU0Njg3NSwieSI6MjM0fSx7IngiOjQ2Ny41NDY4NzUsInkiOjI1OX1d" data-look="classic" marker-end="url(#my-svg_flowchart-v2-pointEnd)"/><path d="M974.164,94.262L836.546,105.218C698.927,116.175,423.69,138.087,286.072,155.21C148.453,172.333,148.453,184.667,148.453,197C148.453,209.333,148.453,221.667,148.453,231.333C148.453,241,148.453,248,148.453,251.5L148.453,255" id="my-svg-L_ORC_CMP_0" class="edge-thickness-normal edge-pattern-solid edge-thickness-normal edge-pattern-solid flowchart-link" style=";" data-edge="true" data-et="edge" data-id="L_ORC_CMP_0" data-points="W3sieCI6OTc0LjE2NDA2MjUsInkiOjk0LjI2MjA4MzY0MDIzMjQyfSx7IngiOjE0OC40NTMxMjUsInkiOjE2MH0seyJ4IjoxNDguNDUzMTI1LCJ5IjoxOTd9LHsieCI6MTQ4LjQ1MzEyNSwieSI6MjM0fSx7IngiOjE0OC40NTMxMjUsInkiOjI1OX1d" data-look="classic" marker-end="url(#my-svg_flowchart-v2-pointEnd)"/><path d="M1495.961,361L1495.961,365.167C1495.961,369.333,1495.961,377.667,1495.961,388C1495.961,398.333,1495.961,410.667,1495.961,423C1495.961,435.333,1495.961,447.667,1500.987,457.6C1506.013,467.534,1516.065,475.067,1521.091,478.834L1526.117,482.601" id="my-svg-L_PLN_IMP_0" class="edge-thickness-normal edge-pattern-solid edge-thickness-normal edge-pattern-solid flowchart-link" style=";" data-edge="true" data-et="edge" data-id="L_PLN_IMP_0" data-points="W3sieCI6MTQ5NS45NjA5Mzc1LCJ5IjozNjF9LHsieCI6MTQ5NS45NjA5Mzc1LCJ5IjozODZ9LHsieCI6MTQ5NS45NjA5Mzc1LCJ5Ijo0MjN9LHsieCI6MTQ5NS45NjA5Mzc1LCJ5Ijo0NjB9LHsieCI6MTUyOS4zMTgyNTY1Nzg5NDczLCJ5Ijo0ODV9XQ==" data-look="classic" marker-end="url(#my-svg_flowchart-v2-pointEnd)"/><path d="M1644.414,587L1648.258,591.167C1652.102,595.333,1659.789,603.667,1663.633,614C1667.477,624.333,1667.477,636.667,1667.477,649C1667.477,661.333,1667.477,673.667,1667.477,683.333C1667.477,693,1667.477,700,1667.477,703.5L1667.477,707" id="my-svg-L_IMP_SCORE_0" class="edge-thickness-normal edge-pattern-solid edge-thickness-normal edge-pattern-solid flowchart-link" style=";" data-edge="true" data-et="edge" data-id="L_IMP_SCORE_0" data-points="W3sieCI6MTY0NC40MTQyNjgwOTIxMDUyLCJ5Ijo1ODd9LHsieCI6MTY2Ny40NzY1NjI1LCJ5Ijo2MTJ9LHsieCI6MTY2Ny40NzY1NjI1LCJ5Ijo2NDl9LHsieCI6MTY2Ny40NzY1NjI1LCJ5Ijo2ODZ9LHsieCI6MTY2Ny40NzY1NjI1LCJ5Ijo3MTF9XQ==" data-look="classic" marker-end="url(#my-svg_flowchart-v2-pointEnd)"/><path d="M1651.571,789L1649.056,795.167C1646.541,801.333,1641.511,813.667,1638.996,826C1636.48,838.333,1636.48,850.667,1630.329,862.546C1624.178,874.426,1611.875,885.852,1605.724,891.565L1599.572,897.278" id="my-svg-L_SCORE_LOOP_0" class="edge-thickness-normal edge-pattern-solid edge-thickness-normal edge-pattern-solid flowchart-link" style=";" data-edge="true" data-et="edge" data-id="L_SCORE_LOOP_0" data-points="W3sieCI6MTY1MS41NzA2NzIyODYxODQyLCJ5Ijo3ODl9LHsieCI6MTYzNi40ODA0Njg3NSwieSI6ODI2fSx7IngiOjE2MzYuNDgwNDY4NzUsInkiOjg2M30seyJ4IjoxNTk2LjY0MTE5MDM3ODI4OTQsInkiOjkwMH1d" data-look="classic" marker-end="url(#my-svg_flowchart-v2-pointEnd)"/><path d="M1528.562,900L1524.437,893.833C1520.312,887.667,1512.062,875.333,1507.937,863C1503.813,850.667,1503.813,838.333,1503.813,819.5C1503.813,800.667,1503.813,775.333,1503.813,752C1503.813,728.667,1503.813,707.333,1503.813,690.5C1503.813,673.667,1503.813,661.333,1503.813,649C1503.813,636.667,1503.813,624.333,1508.424,614.42C1513.036,604.507,1522.259,597.015,1526.871,593.268L1531.482,589.522" id="my-svg-L_LOOP_IMP_0" class="edge-thickness-normal edge-pattern-solid edge-thickness-normal edge-pattern-solid flowchart-link" style=";" data-edge="true" data-et="edge" data-id="L_LOOP_IMP_0" data-points="W3sieCI6MTUyOC41NjE1NzQ4MzU1MjYyLCJ5Ijo5MDB9LHsieCI6MTUwMy44MTI1LCJ5Ijo4NjN9LHsieCI6MTUwMy44MTI1LCJ5Ijo4MjZ9LHsieCI6MTUwMy44MTI1LCJ5Ijo3NTB9LHsieCI6MTUwMy44MTI1LCJ5Ijo2ODZ9LHsieCI6MTUwMy44MTI1LCJ5Ijo2NDl9LHsieCI6MTUwMy44MTI1LCJ5Ijo2MTJ9LHsieCI6MTUzNC41ODcwNjgyNTY1NzksInkiOjU4N31d" data-look="classic" marker-end="url(#my-svg_flowchart-v2-pointEnd)"/><path d="M1694.931,789L1699.272,795.167C1703.613,801.333,1712.295,813.667,1716.636,826C1720.977,838.333,1720.977,850.667,1744.423,863.563C1767.869,876.459,1814.762,889.918,1838.209,896.647L1861.655,903.377" id="my-svg-L_SCORE_GATE_0" class="edge-thickness-normal edge-pattern-solid edge-thickness-normal edge-pattern-solid flowchart-link" style=";" data-edge="true" data-et="edge" data-id="L_SCORE_GATE_0" data-points="W3sieCI6MTY5NC45MzA1MDk4Njg0MjEsInkiOjc4OX0seyJ4IjoxNzIwLjk3NjU2MjUsInkiOjgyNn0seyJ4IjoxNzIwLjk3NjU2MjUsInkiOjg2M30seyJ4IjoxODY1LjUsInkiOjkwNC40ODAwMjU5NjMyOTczfV0=" data-look="classic" marker-end="url(#my-svg_flowchart-v2-pointEnd)"/><path d="M814.625,361L814.625,365.167C814.625,369.333,814.625,377.667,814.625,388C814.625,398.333,814.625,410.667,814.625,423C814.625,435.333,814.625,447.667,814.625,466.5C814.625,485.333,814.625,510.667,814.625,536C814.625,561.333,814.625,586.667,814.625,605.5C814.625,624.333,814.625,636.667,814.625,649C814.625,661.333,814.625,673.667,814.625,683.333C814.625,693,814.625,700,814.625,703.5L814.625,707" id="my-svg-L_REV_CAL_0" class="edge-thickness-normal edge-pattern-solid edge-thickness-normal edge-pattern-solid flowchart-link" style=";" data-edge="true" data-et="edge" data-id="L_REV_CAL_0" data-points="W3sieCI6ODE0LjYyNSwieSI6MzYxfSx7IngiOjgxNC42MjUsInkiOjM4Nn0seyJ4Ijo4MTQuNjI1LCJ5Ijo0MjN9LHsieCI6ODE0LjYyNSwieSI6NDYwfSx7IngiOjgxNC42MjUsInkiOjUzNn0seyJ4Ijo4MTQuNjI1LCJ5Ijo2MTJ9LHsieCI6ODE0LjYyNSwieSI6NjQ5fSx7IngiOjgxNC42MjUsInkiOjY4Nn0seyJ4Ijo4MTQuNjI1LCJ5Ijo3MTF9XQ==" data-look="classic" marker-end="url(#my-svg_flowchart-v2-pointEnd)"/><path d="M1985.773,888L1985.773,883.833C1985.773,879.667,1985.773,871.333,1985.773,861C1985.773,850.667,1985.773,838.333,1985.773,819.5C1985.773,800.667,1985.773,775.333,1985.773,752C1985.773,728.667,1985.773,707.333,1985.773,690.5C1985.773,673.667,1985.773,661.333,1985.773,649C1985.773,636.667,1985.773,624.333,1942.028,609.607C1898.282,594.881,1810.792,577.761,1767.046,569.201L1723.301,560.642" id="my-svg-L_GATE_IMP_0" class="edge-thickness-normal edge-pattern-solid edge-thickness-normal edge-pattern-solid flowchart-link" style=";" data-edge="true" data-et="edge" data-id="L_GATE_IMP_0" data-points="W3sieCI6MTk4NS43NzM0Mzc1LCJ5Ijo4ODh9LHsieCI6MTk4NS43NzM0Mzc1LCJ5Ijo4NjN9LHsieCI6MTk4NS43NzM0Mzc1LCJ5Ijo4MjZ9LHsieCI6MTk4NS43NzM0Mzc1LCJ5Ijo3NTB9LHsieCI6MTk4NS43NzM0Mzc1LCJ5Ijo2ODZ9LHsieCI6MTk4NS43NzM0Mzc1LCJ5Ijo2NDl9LHsieCI6MTk4NS43NzM0Mzc1LCJ5Ijo2MTJ9LHsieCI6MTcxOS4zNzUsInkiOjU1OS44NzM0NDExNDU3MDc2fV0=" data-look="classic" marker-end="url(#my-svg_flowchart-v2-pointEnd)"/><path d="M1985.773,990L1985.773,996.167C1985.773,1002.333,1985.773,1014.667,1985.773,1026.333C1985.773,1038,1985.773,1049,1985.773,1054.5L1985.773,1060" id="my-svg-L_GATE_PR_0" class="edge-thickness-normal edge-pattern-solid edge-thickness-normal edge-pattern-solid flowchart-link" style=";" data-edge="true" data-et="edge" data-id="L_GATE_PR_0" data-points="W3sieCI6MTk4NS43NzM0Mzc1LCJ5Ijo5OTB9LHsieCI6MTk4NS43NzM0Mzc1LCJ5IjoxMDI3fSx7IngiOjE5ODUuNzczNDM3NSwieSI6MTA2NH1d" data-look="classic" marker-end="url(#my-svg_flowchart-v2-pointEnd)"/><path d="M1475.359,581.168L1461.479,586.306C1447.598,591.445,1419.836,601.723,1380.067,613.028C1340.298,624.333,1288.522,636.667,1262.634,649C1236.746,661.333,1236.746,673.667,1236.746,683.333C1236.746,693,1236.746,700,1236.746,703.5L1236.746,707" id="my-svg-L_IMP_ROI_0" class="edge-thickness-normal edge-pattern-solid edge-thickness-normal edge-pattern-solid flowchart-link" style=";" data-edge="true" data-et="edge" data-id="L_IMP_ROI_0" data-points="W3sieCI6MTQ3NS4zNTkzNzUsInkiOjU4MS4xNjc2MTQ4Nzk2NDk5fSx7IngiOjEzOTIuMDc0MjE4NzUsInkiOjYxMn0seyJ4IjoxMjM2Ljc0NjA5Mzc1LCJ5Ijo2NDl9LHsieCI6MTIzNi43NDYwOTM3NSwieSI6Njg2fSx7IngiOjEyMzYuNzQ2MDkzNzUsInkiOjcxMX1d" data-look="classic" marker-end="url(#my-svg_flowchart-v2-pointEnd)"/><path d="M1236.746,789L1236.746,795.167C1236.746,801.333,1236.746,813.667,1236.746,826C1236.746,838.333,1236.746,850.667,1190.548,865.455C1144.35,880.243,1051.953,897.485,1005.755,906.107L959.557,914.728" id="my-svg-L_ROI_ROUTE_0" class="edge-thickness-normal edge-pattern-solid edge-thickness-normal edge-pattern-solid flowchart-link" style=";" data-edge="true" data-et="edge" data-id="L_ROI_ROUTE_0" data-points="W3sieCI6MTIzNi43NDYwOTM3NSwieSI6Nzg5fSx7IngiOjEyMzYuNzQ2MDkzNzUsInkiOjgyNn0seyJ4IjoxMjM2Ljc0NjA5Mzc1LCJ5Ijo4NjN9LHsieCI6OTU1LjYyNSwieSI6OTE1LjQ2MTYyODQ3NTc4NTh9XQ==" data-look="classic" marker-end="url(#my-svg_flowchart-v2-pointEnd)"/><path d="M735.428,900L720.555,893.833C705.681,887.667,675.934,875.333,661.061,863C646.188,850.667,646.188,838.333,646.188,819.5C646.188,800.667,646.188,775.333,646.188,752C646.188,728.667,646.188,707.333,646.188,690.5C646.188,673.667,646.188,661.333,646.188,649C646.188,636.667,646.188,624.333,646.188,605.5C646.188,586.667,646.188,561.333,646.188,536C646.188,510.667,646.188,485.333,646.188,466.5C646.188,447.667,646.188,435.333,646.188,423C646.188,410.667,646.188,398.333,646.188,379.5C646.188,360.667,646.188,335.333,646.188,310C646.188,284.667,646.188,259.333,646.188,240.5C646.188,221.667,646.188,209.333,646.188,197C646.188,184.667,646.188,172.333,700.193,157.183C754.198,142.033,862.208,124.066,916.213,115.082L970.218,106.098" id="my-svg-L_ROUTE_ORC_0" class="edge-thickness-normal edge-pattern-solid edge-thickness-normal edge-pattern-solid flowchart-link" style=";" data-edge="true" data-et="edge" data-id="L_ROUTE_ORC_0" data-points="W3sieCI6NzM1LjQyNzkzOTk2NzEwNTIsInkiOjkwMH0seyJ4Ijo2NDYuMTg3NSwieSI6ODYzfSx7IngiOjY0Ni4xODc1LCJ5Ijo4MjZ9LHsieCI6NjQ2LjE4NzUsInkiOjc1MH0seyJ4Ijo2NDYuMTg3NSwieSI6Njg2fSx7IngiOjY0Ni4xODc1LCJ5Ijo2NDl9LHsieCI6NjQ2LjE4NzUsInkiOjYxMn0seyJ4Ijo2NDYuMTg3NSwieSI6NTM2fSx7IngiOjY0Ni4xODc1LCJ5Ijo0NjB9LHsieCI6NjQ2LjE4NzUsInkiOjQyM30seyJ4Ijo2NDYuMTg3NSwieSI6Mzg2fSx7IngiOjY0Ni4xODc1LCJ5IjozMTB9LHsieCI6NjQ2LjE4NzUsInkiOjIzNH0seyJ4Ijo2NDYuMTg3NSwieSI6MTk3fSx7IngiOjY0Ni4xODc1LCJ5IjoxNjB9LHsieCI6OTc0LjE2NDA2MjUsInkiOjEwNS40NDE5Mjg4NjQ1NjkwOH1d" data-look="classic" marker-end="url(#my-svg_flowchart-v2-pointEnd)"/><path d="M1554.648,978L1554.648,986.167C1554.648,994.333,1554.648,1010.667,1547.933,1024.567C1541.218,1038.468,1527.787,1049.935,1521.071,1055.669L1514.356,1061.403" id="my-svg-L_LOOP_LESSON_0" class="edge-thickness-normal edge-pattern-solid edge-thickness-normal edge-pattern-solid flowchart-link" style=";" data-edge="true" data-et="edge" data-id="L_LOOP_LESSON_0" data-points="W3sieCI6MTU1NC42NDg0Mzc1LCJ5Ijo5Nzh9LHsieCI6MTU1NC42NDg0Mzc1LCJ5IjoxMDI3fSx7IngiOjE1MTEuMzEzNzg0OTUwNjU4LCJ5IjoxMDY0fV0=" data-look="classic" marker-end="url(#my-svg_flowchart-v2-pointEnd)"/><path d="M1428.685,1064L1422.843,1057.833C1417,1051.667,1405.314,1039.333,1399.472,1018.5C1393.629,997.667,1393.629,968.333,1393.629,941C1393.629,913.667,1393.629,888.333,1393.629,869.5C1393.629,850.667,1393.629,838.333,1393.629,819.5C1393.629,800.667,1393.629,775.333,1393.629,752C1393.629,728.667,1393.629,707.333,1393.629,690.5C1393.629,673.667,1393.629,661.333,1375.201,649C1356.773,636.667,1319.918,624.333,1301.49,605.5C1283.063,586.667,1283.063,561.333,1283.063,536C1283.063,510.667,1283.063,485.333,1283.063,466.5C1283.063,447.667,1283.063,435.333,1283.063,423C1283.063,410.667,1283.063,398.333,1283.063,379.5C1283.063,360.667,1283.063,335.333,1283.063,310C1283.063,284.667,1283.063,259.333,1283.063,240.5C1283.063,221.667,1283.063,209.333,1283.063,197C1283.063,184.667,1283.063,172.333,1273.808,162.259C1264.554,152.185,1246.045,144.371,1236.791,140.463L1227.537,136.556" id="my-svg-L_LESSON_ORC_0" class="edge-thickness-normal edge-pattern-solid edge-thickness-normal edge-pattern-solid flowchart-link" style=";" data-edge="true" data-et="edge" data-id="L_LESSON_ORC_0" data-points="W3sieCI6MTQyOC42ODUzNDEyODI4OTQ4LCJ5IjoxMDY0fSx7IngiOjEzOTMuNjI4OTA2MjUsInkiOjEwMjd9LHsieCI6MTM5My42Mjg5MDYyNSwieSI6OTM5fSx7IngiOjEzOTMuNjI4OTA2MjUsInkiOjg2M30seyJ4IjoxMzkzLjYyODkwNjI1LCJ5Ijo4MjZ9LHsieCI6MTM5My42Mjg5MDYyNSwieSI6NzUwfSx7IngiOjEzOTMuNjI4OTA2MjUsInkiOjY4Nn0seyJ4IjoxMzkzLjYyODkwNjI1LCJ5Ijo2NDl9LHsieCI6MTI4My4wNjI1LCJ5Ijo2MTJ9LHsieCI6MTI4My4wNjI1LCJ5Ijo1MzZ9LHsieCI6MTI4My4wNjI1LCJ5Ijo0NjB9LHsieCI6MTI4My4wNjI1LCJ5Ijo0MjN9LHsieCI6MTI4My4wNjI1LCJ5IjozODZ9LHsieCI6MTI4My4wNjI1LCJ5IjozMTB9LHsieCI6MTI4My4wNjI1LCJ5IjoyMzR9LHsieCI6MTI4My4wNjI1LCJ5IjoxOTd9LHsieCI6MTI4My4wNjI1LCJ5IjoxNjB9LHsieCI6MTIyMy44NTE5NzM2ODQyMTA0LCJ5IjoxMzV9XQ==" data-look="classic" marker-end="url(#my-svg_flowchart-v2-pointEnd)"/></g><g class="edgeLabels"><g class="edgeLabel" transform="translate(1495.9609375, 197)"><g class="label" data-id="L_ORC_PLN_0" transform="translate(-31.296875, -12)"><foreignObject width="62.59375" height="24"><div xmlns="http://www.w3.org/1999/xhtml" class="labelBkg" style="display: table-cell; white-space: nowrap; line-height: 1.5; max-width: 200px; text-align: center;"><span class="edgeLabel"><p>delegate</p></span></div></foreignObject></g></g><g class="edgeLabel" transform="translate(1886.46484375, 310)"><g class="label" data-id="L_ORC_EXP_0" transform="translate(-29.625, -12)"><foreignObject width="59.25" height="24"><div xmlns="http://www.w3.org/1999/xhtml" class="labelBkg" style="display: table-cell; white-space: nowrap; line-height: 1.5; max-width: 200px; text-align: center;"><span class="edgeLabel"><p>discover</p></span></div></foreignObject></g></g><g class="edgeLabel" transform="translate(1712.6328125, 310)"><g class="label" data-id="L_ORC_IMP_0" transform="translate(-38.6484375, -12)"><foreignObject width="77.296875" height="24"><div xmlns="http://www.w3.org/1999/xhtml" class="labelBkg" style="display: table-cell; white-space: nowrap; line-height: 1.5; max-width: 200px; text-align: center;"><span class="edgeLabel"><p>implement</p></span></div></foreignObject></g></g><g class="edgeLabel" transform="translate(814.625, 197)"><g class="label" data-id="L_ORC_REV_0" transform="translate(-23.9921875, -12)"><foreignObject width="47.984375" height="24"><div xmlns="http://www.w3.org/1999/xhtml" class="labelBkg" style="display: table-cell; white-space: nowrap; line-height: 1.5; max-width: 200px; text-align: center;"><span class="edgeLabel"><p>review</p></span></div></foreignObject></g></g><g class="edgeLabel" transform="translate(1103.0625, 197)"><g class="label" data-id="L_ORC_ARCH_0" transform="translate(-44.4375, -12)"><foreignObject width="88.875" height="24"><div xmlns="http://www.w3.org/1999/xhtml" class="labelBkg" style="display: table-cell; white-space: nowrap; line-height: 1.5; max-width: 200px; text-align: center;"><span class="edgeLabel"><p>architecture</p></span></div></foreignObject></g></g><g class="edgeLabel" transform="translate(467.546875, 197)"><g class="label" data-id="L_ORC_BUD_0" transform="translate(-24.8359375, -12)"><foreignObject width="49.671875" height="24"><div xmlns="http://www.w3.org/1999/xhtml" class="labelBkg" style="display: table-cell; white-space: nowrap; line-height: 1.5; max-width: 200px; text-align: center;"><span class="edgeLabel"><p>budget</p></span></div></foreignObject></g></g><g class="edgeLabel" transform="translate(148.453125, 197)"><g class="label" data-id="L_ORC_CMP_0" transform="translate(-41.6328125, -12)"><foreignObject width="83.265625" height="24"><div xmlns="http://www.w3.org/1999/xhtml" class="labelBkg" style="display: table-cell; white-space: nowrap; line-height: 1.5; max-width: 200px; text-align: center;"><span class="edgeLabel"><p>compaction</p></span></div></foreignObject></g></g><g class="edgeLabel" transform="translate(1495.9609375, 423)"><g class="label" data-id="L_PLN_IMP_0" transform="translate(-51.0625, -12)"><foreignObject width="102.125" height="24"><div xmlns="http://www.w3.org/1999/xhtml" class="labelBkg" style="display: table-cell; white-space: nowrap; line-height: 1.5; max-width: 200px; text-align: center;"><span class="edgeLabel"><p>approved plan</p></span></div></foreignObject></g></g><g class="edgeLabel" transform="translate(1667.4765625, 649)"><g class="label" data-id="L_IMP_SCORE_0" transform="translate(-40.2109375, -12)"><foreignObject width="80.421875" height="24"><div xmlns="http://www.w3.org/1999/xhtml" class="labelBkg" style="display: table-cell; white-space: nowrap; line-height: 1.5; max-width: 200px; text-align: center;"><span class="edgeLabel"><p>test results</p></span></div></foreignObject></g></g><g class="edgeLabel" transform="translate(1636.48046875, 826)"><g class="label" data-id="L_SCORE_LOOP_0" transform="translate(-11.8046875, -12)"><foreignObject width="23.609375" height="24"><div xmlns="http://www.w3.org/1999/xhtml" class="labelBkg" style="display: table-cell; white-space: nowrap; line-height: 1.5; max-width: 200px; text-align: center;"><span class="edgeLabel"><p>fail</p></span></div></foreignObject></g></g><g class="edgeLabel" transform="translate(1503.8125, 750)"><g class="label" data-id="L_LOOP_IMP_0" transform="translate(-21.5234375, -12)"><foreignObject width="43.046875" height="24"><div xmlns="http://www.w3.org/1999/xhtml" class="labelBkg" style="display: table-cell; white-space: nowrap; line-height: 1.5; max-width: 200px; text-align: center;"><span class="edgeLabel"><p>repair</p></span></div></foreignObject></g></g><g class="edgeLabel" transform="translate(1720.9765625, 826)"><g class="label" data-id="L_SCORE_GATE_0" transform="translate(-15.140625, -12)"><foreignObject width="30.28125" height="24"><div xmlns="http://www.w3.org/1999/xhtml" class="labelBkg" style="display: table-cell; white-space: nowrap; line-height: 1.5; max-width: 200px; text-align: center;"><span class="edgeLabel"><p>pass</p></span></div></foreignObject></g></g><g class="edgeLabel" transform="translate(814.625, 536)"><g class="label" data-id="L_REV_CAL_0" transform="translate(-27.9765625, -12)"><foreignObject width="55.953125" height="24"><div xmlns="http://www.w3.org/1999/xhtml" class="labelBkg" style="display: table-cell; white-space: nowrap; line-height: 1.5; max-width: 200px; text-align: center;"><span class="edgeLabel"><p>findings</p></span></div></foreignObject></g></g><g class="edgeLabel" transform="translate(1985.7734375, 750)"><g class="label" data-id="L_GATE_IMP_0" transform="translate(-19.109375, -12)"><foreignObject width="38.21875" height="24"><div xmlns="http://www.w3.org/1999/xhtml" class="labelBkg" style="display: table-cell; white-space: nowrap; line-height: 1.5; max-width: 200px; text-align: center;"><span class="edgeLabel"><p>block</p></span></div></foreignObject></g></g><g class="edgeLabel" transform="translate(1985.7734375, 1027)"><g class="label" data-id="L_GATE_PR_0" transform="translate(-15.140625, -12)"><foreignObject width="30.28125" height="24"><div xmlns="http://www.w3.org/1999/xhtml" class="labelBkg" style="display: table-cell; white-space: nowrap; line-height: 1.5; max-width: 200px; text-align: center;"><span class="edgeLabel"><p>pass</p></span></div></foreignObject></g></g><g class="edgeLabel" transform="translate(1236.74609375, 649)"><g class="label" data-id="L_IMP_ROI_0" transform="translate(-45.828125, -12)"><foreignObject width="91.65625" height="24"><div xmlns="http://www.w3.org/1999/xhtml" class="labelBkg" style="display: table-cell; white-space: nowrap; line-height: 1.5; max-width: 200px; text-align: center;"><span class="edgeLabel"><p>performance</p></span></div></foreignObject></g></g><g class="edgeLabel" transform="translate(1236.74609375, 826)"><g class="label" data-id="L_ROI_ROUTE_0" transform="translate(-63.7578125, -12)"><foreignObject width="127.515625" height="24"><div xmlns="http://www.w3.org/1999/xhtml" class="labelBkg" style="display: table-cell; white-space: nowrap; line-height: 1.5; max-width: 200px; text-align: center;"><span class="edgeLabel"><p>recommendations</p></span></div></foreignObject></g></g><g class="edgeLabel" transform="translate(646.1875, 536)"><g class="label" data-id="L_ROUTE_ORC_0" transform="translate(-29.4453125, -12)"><foreignObject width="58.890625" height="24"><div xmlns="http://www.w3.org/1999/xhtml" class="labelBkg" style="display: table-cell; white-space: nowrap; line-height: 1.5; max-width: 200px; text-align: center;"><span class="edgeLabel"><p>advisory</p></span></div></foreignObject></g></g><g class="edgeLabel" transform="translate(1554.6484375, 1027)"><g class="label" data-id="L_LOOP_LESSON_0" transform="translate(-25.1015625, -12)"><foreignObject width="50.203125" height="24"><div xmlns="http://www.w3.org/1999/xhtml" class="labelBkg" style="display: table-cell; white-space: nowrap; line-height: 1.5; max-width: 200px; text-align: center;"><span class="edgeLabel"><p>lessons</p></span></div></foreignObject></g></g><g class="edgeLabel" transform="translate(1393.62890625, 649)"><g class="label" data-id="L_LESSON_ORC_0" transform="translate(-22.34375, -12)"><foreignObject width="44.6875" height="24"><div xmlns="http://www.w3.org/1999/xhtml" class="labelBkg" style="display: table-cell; white-space: nowrap; line-height: 1.5; max-width: 200px; text-align: center;"><span class="edgeLabel"><p>future</p></span></div></foreignObject></g></g></g><g class="nodes"><g class="node default" id="my-svg-flowchart-ORC-0" data-look="classic" transform="translate(1103.0625, 84)"><rect class="basic label-container" style="" x="-128.8984375" y="-51" width="257.796875" height="102"/><g class="label" style="" transform="translate(-98.8984375, -36)"><rect/><foreignObject width="197.796875" height="72"><div xmlns="http://www.w3.org/1999/xhtml" style="display: table-cell; white-space: nowrap; line-height: 1.5; max-width: 200px; text-align: center;"><span class="nodeLabel"><p>Orchestrator<br />umans-glm-5.2<br />Routes tasks, owns strategy</p></span></div></foreignObject></g></g><g class="node default" id="my-svg-flowchart-PLN-1" data-look="classic" transform="translate(1495.9609375, 310)"><rect class="basic label-container" style="" x="-123.0234375" y="-51" width="246.046875" height="102"/><g class="label" style="" transform="translate(-93.0234375, -36)"><rect/><foreignObject width="186.046875" height="72"><div xmlns="http://www.w3.org/1999/xhtml" style="display: table-cell; white-space: nowrap; line-height: 1.5; max-width: 200px; text-align: center;"><span class="nodeLabel"><p>Planner<br />Creates plans, touch lists<br />Ambiguous/high-risk work</p></span></div></foreignObject></g></g><g class="node default" id="my-svg-flowchart-IMP-2" data-look="classic" transform="translate(1597.3671875, 536)"><rect class="basic label-container" style="" x="-122.0078125" y="-51" width="244.015625" height="102"/><g class="label" style="" transform="translate(-92.0078125, -36)"><rect/><foreignObject width="184.015625" height="72"><div xmlns="http://www.w3.org/1999/xhtml" style="display: table-cell; white-space: nowrap; line-height: 1.5; max-width: 200px; text-align: center;"><span class="nodeLabel"><p>Implementer<br />Bounded code changes<br />Consumes approved plans</p></span></div></foreignObject></g></g><g class="node default" id="my-svg-flowchart-EXP-3" data-look="classic" transform="translate(1886.46484375, 536)"><rect class="basic label-container" style="" x="-101.2421875" y="-51" width="202.484375" height="102"/><g class="label" style="" transform="translate(-71.2421875, -36)"><rect/><foreignObject width="142.484375" height="72"><div xmlns="http://www.w3.org/1999/xhtml" style="display: table-cell; white-space: nowrap; line-height: 1.5; max-width: 200px; text-align: center;"><span class="nodeLabel"><p>Explorer<br />Read-only discovery<br />Cheap-first routing</p></span></div></foreignObject></g></g><g class="node default" id="my-svg-flowchart-REV-4" data-look="classic" transform="translate(814.625, 310)"><rect class="basic label-container" style="" x="-113.4375" y="-51" width="226.875" height="102"/><g class="label" style="" transform="translate(-83.4375, -36)"><rect/><foreignObject width="166.875" height="72"><div xmlns="http://www.w3.org/1999/xhtml" style="display: table-cell; white-space: nowrap; line-height: 1.5; max-width: 200px; text-align: center;"><span class="nodeLabel"><p>Reviewer<br />umans-glm-5.1<br />Risk 4+, sensitive paths</p></span></div></foreignObject></g></g><g class="node default" id="my-svg-flowchart-ARCH-5" data-look="classic" transform="translate(1103.0625, 310)"><rect class="basic label-container" style="" x="-125" y="-51" width="250" height="102"/><g class="label" style="" transform="translate(-95, -36)"><rect/><foreignObject width="190" height="72"><div xmlns="http://www.w3.org/1999/xhtml" style="display: table-cell; white-space: nowrap; line-height: 1.5; max-width: 200px; text-align: center;"><span class="nodeLabel"><p>Architect<br />qwen3.7-plus<br />Auth/schema/state-model</p></span></div></foreignObject></g></g><g class="node default" id="my-svg-flowchart-BUD-6" data-look="classic" transform="translate(467.546875, 310)"><rect class="basic label-container" style="" x="-123.640625" y="-51" width="247.28125" height="102"/><g class="label" style="" transform="translate(-93.640625, -36)"><rect/><foreignObject width="187.28125" height="72"><div xmlns="http://www.w3.org/1999/xhtml" style="display: table-cell; white-space: nowrap; line-height: 1.5; max-width: 200px; text-align: center;"><span class="nodeLabel"><p>Budget<br />deepseek-v4-flash<br />Cheap summaries, routing</p></span></div></foreignObject></g></g><g class="node default" id="my-svg-flowchart-CMP-7" data-look="classic" transform="translate(148.453125, 310)"><rect class="basic label-container" style="" x="-105.453125" y="-51" width="210.90625" height="102"/><g class="label" style="" transform="translate(-75.453125, -36)"><rect/><foreignObject width="150.90625" height="72"><div xmlns="http://www.w3.org/1999/xhtml" style="display: table-cell; white-space: nowrap; line-height: 1.5; max-width: 200px; text-align: center;"><span class="nodeLabel"><p>Compaction<br />glm-5.2 / kimi-k2.7<br />Context preservation</p></span></div></foreignObject></g></g><g class="node default" id="my-svg-flowchart-ROI-8" data-look="classic" transform="translate(1236.74609375, 750)"><rect class="basic label-container" style="" x="-117.6328125" y="-39" width="235.265625" height="78"/><g class="label" style="" transform="translate(-87.6328125, -24)"><rect/><foreignObject width="175.265625" height="48"><div xmlns="http://www.w3.org/1999/xhtml" style="display: table-cell; white-space: nowrap; line-height: 1.5; max-width: 200px; text-align: center;"><span class="nodeLabel"><p>Model ROI Analyzer<br />Normalizes performance</p></span></div></foreignObject></g></g><g class="node default" id="my-svg-flowchart-ROUTE-9" data-look="classic" transform="translate(829.4921875, 939)"><rect class="basic label-container" style="" x="-126.1328125" y="-39" width="252.265625" height="78"/><g class="label" style="" transform="translate(-96.1328125, -24)"><rect/><foreignObject width="192.265625" height="48"><div xmlns="http://www.w3.org/1999/xhtml" style="display: table-cell; white-space: nowrap; line-height: 1.5; max-width: 200px; text-align: center;"><span class="nodeLabel"><p>Routing Generator<br />Advisory recommendations</p></span></div></foreignObject></g></g><g class="node default" id="my-svg-flowchart-CAL-10" data-look="classic" transform="translate(814.625, 750)"><rect class="basic label-container" style="" x="-104.609375" y="-39" width="209.21875" height="78"/><g class="label" style="" transform="translate(-74.609375, -24)"><rect/><foreignObject width="149.21875" height="48"><div xmlns="http://www.w3.org/1999/xhtml" style="display: table-cell; white-space: nowrap; line-height: 1.5; max-width: 200px; text-align: center;"><span class="nodeLabel"><p>Reviewer Calibration<br />Tracks disagreement</p></span></div></foreignObject></g></g><g class="node default" id="my-svg-flowchart-LOOP-11" data-look="classic" transform="translate(1554.6484375, 939)"><rect class="basic label-container" style="" x="-109.015625" y="-39" width="218.03125" height="78"/><g class="label" style="" transform="translate(-79.015625, -24)"><rect/><foreignObject width="158.03125" height="48"><div xmlns="http://www.w3.org/1999/xhtml" style="display: table-cell; white-space: nowrap; line-height: 1.5; max-width: 200px; text-align: center;"><span class="nodeLabel"><p>Loop Controller<br />Bounded repair cycles</p></span></div></foreignObject></g></g><g class="node default" id="my-svg-flowchart-SCORE-12" data-look="classic" transform="translate(1667.4765625, 750)"><rect class="basic label-container" style="" x="-107.140625" y="-39" width="214.28125" height="78"/><g class="label" style="" transform="translate(-77.140625, -24)"><rect/><foreignObject width="154.28125" height="48"><div xmlns="http://www.w3.org/1999/xhtml" style="display: table-cell; white-space: nowrap; line-height: 1.5; max-width: 200px; text-align: center;"><span class="nodeLabel"><p>Task Scorer<br />7 dimensions, max 35</p></span></div></foreignObject></g></g><g class="node default" id="my-svg-flowchart-LESSON-13" data-look="classic" transform="translate(1465.63671875, 1103)"><rect class="basic label-container" style="" x="-89.28125" y="-39" width="178.5625" height="78"/><g class="label" style="" transform="translate(-59.28125, -24)"><rect/><foreignObject width="118.5625" height="48"><div xmlns="http://www.w3.org/1999/xhtml" style="display: table-cell; white-space: nowrap; line-height: 1.5; max-width: 200px; text-align: center;"><span class="nodeLabel"><p>Lesson Extractor<br />JSONL evidence</p></span></div></foreignObject></g></g><g class="node default" id="my-svg-flowchart-GATE-14" data-look="classic" transform="translate(1985.7734375, 939)"><rect class="basic label-container" style="" x="-120.2734375" y="-51" width="240.546875" height="102"/><g class="label" style="" transform="translate(-90.2734375, -36)"><rect/><foreignObject width="180.546875" height="72"><div xmlns="http://www.w3.org/1999/xhtml" style="display: table-cell; white-space: nowrap; line-height: 1.5; max-width: 200px; text-align: center;"><span class="nodeLabel"><p>Release Gate<br />CI + sensitive classifier<br />Reviewer evidence check</p></span></div></foreignObject></g></g><g class="node default" id="my-svg-flowchart-PR-15" data-look="classic" transform="translate(1985.7734375, 1103)"><rect class="basic label-container" style="" x="-121.15625" y="-39" width="242.3125" height="78"/><g class="label" style="" transform="translate(-91.15625, -24)"><rect/><foreignObject width="182.3125" height="48"><div xmlns="http://www.w3.org/1999/xhtml" style="display: table-cell; white-space: nowrap; line-height: 1.5; max-width: 200px; text-align: center;"><span class="nodeLabel"><p>PR / Merge<br />Human approval required</p></span></div></foreignObject></g></g></g></g></g><defs><filter id="my-svg-drop-shadow" height="130%" width="130%"><feDropShadow dx="4" dy="4" stdDeviation="0" flood-opacity="0.06" flood-color="#000000"/></filter></defs><defs><filter id="my-svg-drop-shadow-small" height="150%" width="150%"><feDropShadow dx="2" dy="2" stdDeviation="0" flood-opacity="0.06" flood-color="#000000"/></filter></defs></svg>